#!OML:ASF E:/inclinewalkrobotboard/Project1/Captureday1/Session1/subject1.ASF
:FULLY-SPECIFIED
:DEGREES
101
root 0 0 0 1.6790692497522572 1.2199052045166834 -1.0416779706223949
lowerback 10.789960318239109 -0.23223106562205775 -2.305579482308393
upperback 2.4945843747153917 -0.6099530926365115 1.1007134654079507
thorax -3.3198246484270326 -0.21158892405706786 2.440241290885789
lowerneck -5.817978546603536 -2.1030717780455443 -0.28055370716936445
upperneck 23.73069050733295 -3.255594100449759 2.9049143755900437
head 8.83759637920344 -1.3577747180665198 0.7785401375214416
rclavicle 4.840713328682312E-15 2.344541618661155E-15
rhumerus -7.187162682129673 14.597617889932298 -50.136200779917644
rradius 107.96572475834884
rwrist -43.3276184105913
rhand -4.01699543820215 -54.61920328725447
rfingers 7.125020000000006
rthumb 21.75010814128556 -83.20554114452364
lclavicle 1.4542198844222874E-15 3.662793386618526E-15
lhumerus -44.54591387970862 -7.642157265463595 85.21441261549275
lradius 62.173462871018124
lwrist 7.4323540559040495
lhand -11.765751804519683 -28.887377652153614
lfingers 7.12502000000002
lthumb 14.293313774146744 0.6740573707818243
rfemur 1.1389977532244684 -0.506044811061805 -2.8527000979807067
rtibia -4.392656389941571
rfoot 0.8668678593616583 0.6161348524908656
rtoes -0.7150110338968487
lfemur 0.8487389295008798 -6.394201067424447 -10.169450680466987
ltibia 22.344060261773542
lfoot -28.19866873020539 14.320424636429351
ltoes -60.15019776322118
102
root 0 0 0 1.6963147158201468 1.222703892982992 -1.044645690689729
lowerback 10.813266354298761 -0.23281885420508186 -2.303823034200189
upperback 2.488592127655043 -0.6106310619459319 1.0995951139598672
thorax -3.3387113008352287 -0.21209582964966656 2.4370653523733106
lowerneck -5.827321689662604 -2.1010347696836336 -0.2751064586281124
upperneck 23.716729353761348 -3.251520395462617 2.888968005310023
head 8.835528968362595 -1.3567450845800877 0.7727105088569666
rclavicle 4.839034870704016E-15 2.3519656450022927E-15
rhumerus -7.169687769585343 14.608114951819523 -50.12812199111002
rradius 108.00728366053019
rwrist -43.31458210133796
rhand -4.024842340690707 -54.613917917117845
rfingers 7.125020000000006
rthumb 21.74258323290328 -83.20147317875922
lclavicle 1.455461397692243E-15 3.6634872885174105E-15
lhumerus -44.547623813919714 -7.636909861469908 85.21923414358211
lradius 62.16505112222453
lwrist 7.4223017600357135
lhand -11.760778487831782 -28.896892557081312
lfingers 7.12502000000002
lthumb 14.298064268105936 0.6645822865718962
rfemur 1.1445937036470122 -0.507810118653298 -2.862232731929309
rtibia -4.40784932818978
rfoot 0.8700073211270514 0.618765702960475
rtoes -0.7168012141424287
lfemur 0.8382357898895654 -6.390742082481504 -10.1665781265865
ltibia 22.34759991068839
lfoot -28.19413546749707 14.31894527098751
ltoes -60.15431414505085
103
root 0 0 0 1.7193456751768217 1.225598413449398 -1.050711435150674
lowerback 10.848776104781374 -0.23242686092100928 -2.3001348244817033
upperback 2.48558430441278 -0.609739934328076 1.0983255304863606
thorax -3.360922194328161 -0.2119107329844503 2.432103966176125
lowerneck -5.833026374895941 -2.099277251707168 -0.26728101055362247
upperneck 23.698938861389585 -3.2474013659563163 2.8687366389365057
head 8.831932634606213 -1.3559608550327595 0.7651241152980384
rclavicle 4.801425238202784E-15 2.4210373318688317E-15
rhumerus -7.174202802102805 14.641465695469513 -50.14088616486586
rradius 108.06586641362354
rwrist -43.2775788194565
rhand -4.0444486394599775 -54.58863089802643
rfingers 7.1250200000000055
rthumb 21.723719493442818 -83.17722239430715
lclavicle 1.4181480306234332E-15 3.705687631306962E-15
lhumerus -44.53723390651746 -7.638254224695594 85.23363435426073
lradius 62.153799278256
lwrist 7.414563910818366
lhand -11.758213079598978 -28.899823754962487
lfingers 7.12502000000002
lthumb 14.300400828147051 0.6611167370750017
rfemur 1.152024975985463 -0.5094136108138323 -2.8716673658703886
rtibia -4.425129644511344
rfoot 0.8723568214315724 0.6215808621098238
rtoes -0.718973824903341
lfemur 0.8122688924147026 -6.377015162834494 -10.154417588458161
ltibia 22.354936815904555
lfoot -28.191434084934574 14.319166178576666
ltoes -60.190903535991936
104
root 0 0 0 1.7384977498209095 1.2289990790461833 -1.0507101287469314
lowerback 10.863639096458623 -0.23448252313276752 -2.2999077528481227
upperback 2.4688559513908896 -0.6125927002010298 1.0972807933680249
thorax -3.3865454362291114 -0.21340038544263906 2.4300996530530354
lowerneck -5.85674635337231 -2.0953036003935415 -0.2625306997566497
upperneck 23.70580959479141 -3.241070064447708 2.849497543975338
head 8.839428610736576 -1.353729147174716 0.7582070897925022
rclavicle 4.829811246010966E-15 2.3942711110404787E-15
rhumerus -7.152335677489104 14.625504108291885 -50.12472469540546
rradius 108.07749467095346
rwrist -43.27747197700015
rhand -4.04445608965473 -54.597974119351406
rfingers 7.1250200000000055
rthumb 21.723697994300753 -83.1882787446971
lclavicle 1.45256283453509E-15 3.6970589945772506E-15
lhumerus -44.543529439871946 -7.631254045651209 85.23261180501143
lradius 62.14802431770863
lwrist 7.406401064835482
lhand -11.75387259429101 -28.90755215949402
lfingers 7.12502000000002
lthumb 14.304481361706113 0.6538974187113986
rfemur 1.1531175235785414 -0.5099380821013244 -2.875551605206665
rtibia -4.432085071828716
rfoot 0.8731818778479772 0.6222807832843356
rtoes -0.7203111221172429
lfemur 0.8144296057099831 -6.380129196340163 -10.155492954709336
ltibia 22.354116802845933
lfoot -28.190483902651184 14.319935223567741
ltoes -60.187509788044714
105
root 0 0 0 1.756939759906588 1.2305682326860112 -1.0498516399659836
lowerback 10.875915644456352 -0.23694770006749766 -2.2999673080390455
upperback 2.4492408375697905 -0.6160033521554222 1.0968976575267195
thorax -3.4137607689014717 -0.21510060595219438 2.4290818665178486
lowerneck -5.88418974555871 -2.0904059214703308 -0.2575138002717771
upperneck 23.724859380009065 -3.2334854522110152 2.828565168846109
head 8.851696013128537 -1.3508701328808066 0.7506604590909709
rclavicle 4.846929723705482E-15 2.4020824046472878E-15
rhumerus -7.158016608302647 14.600949275740923 -50.1204606756323
rradius 108.06913799774381
rwrist -43.2702502835538
rhand -4.047329830566914 -54.60344910646155
rfingers 7.1250200000000055
rthumb 21.72087002115167 -83.1946396605307
lclavicle 1.4744103511523966E-15 3.6976763873385786E-15
lhumerus -44.545809621937764 -7.625704932209202 85.23488085876856
lradius 62.13990085894986
lwrist 7.398315228063478
lhand -11.75057129908689 -28.912397458033087
lfingers 7.125020000000019
lthumb 14.307659199808421 0.6490525959591764
rfemur 1.1570094449501775 -0.5111473160518694 -2.8826591401281743
rtibia -4.444047820931743
rfoot 0.8751410651648301 0.6240694138706862
rtoes -0.7220499515775536
lfemur 0.8135597677372699 -6.381403966016085 -10.155988943020562
ltibia 22.353673618913053
lfoot -28.18939578407015 14.31995276658572
ltoes -60.18372865237198
106
root 0 0 0 1.7754978934464947 1.2313135466614353 -1.0480376000182838
lowerback 10.88412098526414 -0.23989167543323886 -2.300339667143424
upperback 2.4254896715858023 -0.6200827534162074 1.0968740466046387
thorax -3.443075658516342 -0.21708581187288511 2.428731951845516
lowerneck -5.9171166382026765 -2.084536326470138 -0.25260577895392183
upperneck 23.756663990058634 -3.2247302963945117 2.806083716711803
head 8.869188418343109 -1.3473791080285116 0.7425554154612357
rclavicle 4.860267569198142E-15 2.4079267465088005E-15
rhumerus -7.1750093937119175 14.568573823318257 -50.12254458401386
rradius 108.04131065743434
rwrist -43.262057332954676
rhand -4.048814722845703 -54.610017490231186
rfingers 7.1250200000000055
rthumb 21.71935366517482 -83.20196143035577
lclavicle 1.4896042245714876E-15 3.698219285312263E-15
lhumerus -44.54637551253395 -7.620802689253274 85.23814057502067
lradius 62.131105774575275
lwrist 7.390703755820356
lhand -11.747869635376148 -28.915707737270594
lfingers 7.125020000000019
lthumb 14.310210423893011 0.6456928703831402
rfemur 1.160301487169721 -0.5121976970735092 -2.888630735245984
rtibia -4.453915641415289
rfoot 0.8769330995079354 0.6256303060410802
rtoes -0.7234558485183455
lfemur 0.8124221633159072 -6.3815894781606595 -10.15645822723684
ltibia 22.354037170730717
lfoot -28.18771058513664 14.31912908065306
ltoes -60.18011823247845
107
root 0 0 0 1.7953024673240914 1.2320764987292496 -1.0457449702466408
lowerback 10.892128968097571 -0.24314855000448043 -2.3007857354906713
upperback 2.399589864070954 -0.6245813422920334 1.0969436471891914
thorax -3.4745077422440986 -0.21926482941833336 2.428524495237122
lowerneck -5.954091201383695 -2.0781131829249353 -0.24763783113356763
upperneck 23.796517139348047 -3.2152418701443266 2.781620623295666
head 8.890129960181678 -1.3435386097716335 0.7337271023355234
rclavicle 4.8768585352564946E-15 2.4182271254797943E-15
rhumerus -7.2030816431418625 14.531235339322574 -50.13200995613364
rradius 107.99958420568456
rwrist -43.24845834115242
rhand -4.050519681225598 -54.61625886769139
rfingers 7.1250200000000055
rthumb 21.717603456375045 -83.20900564171404
lclavicle 1.5077803194158988E-15 3.7035202122941225E-15
lhumerus -44.5455936773074 -7.616251440739053 85.24236422855611
lradius 62.12131061785303
lwrist 7.383115258967109
lhand -11.74552376962162 -28.91763025115009
lfingers 7.125020000000019
lthumb 14.312392967233848 0.6436913202119037
rfemur 1.1633691181311585 -0.5131758917997042 -2.8942577036718493
rtibia -4.463285153749684
rfoot 0.8785796788099338 0.6270829229604558
rtoes -0.7248349660951006
lfemur 0.8125814542629586 -6.382267238616731 -10.157173561983228
ltibia 22.353747233537007
lfoot -28.186841611645256 14.31873588307971
ltoes -60.176604070399094
